# xmcd
#
# Track frame offsets:
#	150
#	14678
#	31140
#	48638
#	66505
#	80497
#	96417
#	113730
#	130018
#	145873
#	160962
#	177786
#	194686
#	214045
#	231219
#	247867
#	263244
#	281468
#	300655
#	314535
#
# Disc length: 4384 seconds
#
# Revision: 1
# Processed by: cddbd v1.5.2PL0 Copyright (c) Steve Scherf et al.
# Submitted via: audiograbber 1.83.01
#
DISCID=22111e14
DTITLE=Various Artist - 5 Years of Country To Country
DYEAR=2017
DGENRE=Country
TTITLE0=Beautiful Drug
TTITLE1=Consider Me Gone
TTITLE2=Come Back Song
TTITLE3=I Want Crazy
TTITLE4=Half Broke Heart
TTITLE5='80's Mercedes
TTITLE6=Stay A Little Longer
TTITLE7=Something 'Bout A Truck
TTITLE8=Hell Would Freeze Over
TTITLE9=Shut Up And Fish
TTITLE10=One Hell Of An Amen
TTITLE11=Banjo
TTITLE12=Southern Girl
TTITLE13=Make Me Wanna
TTITLE14=If The Devil Don't Want Me
TTITLE15=Little Red Wagon
TTITLE16=Strip It Down
TTITLE17=Drunk On A Plane
TTITLE18=Guilty Flowers
TTITLE19=House Party
EXTD=Best of Country to Country 2013-2017
EXTT0=
EXTT1=
EXTT2=
EXTT3=
EXTT4=
EXTT5=
EXTT6=
EXTT7=
EXTT8=
EXTT9=
EXTT10=
EXTT11=
EXTT12=
EXTT13=
EXTT14=
EXTT15=
EXTT16=
EXTT17=
EXTT18=
EXTT19=
PLAYORDER=
